<svg width="134" height="100" viewBox="0 0 134 100" fill="none" xmlns="http://www.w3.org/2000/svg">
<g clip-path="url(#clip0_424_60)">
<path d="M91.9698 55.8374L126.644 16.0353V1.40576H67.3005C66.7365 3.09412 66.3142 5.20385 66.3142 7.31358C66.3142 11.3454 67.5782 16.855 71.5841 19.3168C71.5813 19.2966 69.9586 12.1016 71.9312 9.1549C71.9312 9.1549 76.1946 8.98462 78.6098 12.7279C78.6098 12.7279 85.3375 9.99764 92.2128 11.1665C97.2456 12.0208 98.6137 16.2576 98.6137 16.2576C98.6137 16.2576 103.042 16.5693 105.344 15.8593C105.344 15.8593 106.808 15.0108 107.482 16.7424C108.031 18.1566 109.246 20.8984 107.774 24.5926C105.373 30.6187 90.5988 30.9189 78.6879 43.0693C71.8416 50.0507 52.6534 72.6719 52.6534 72.6719L53.2087 72.8681C54.9094 73.48 56.9717 73.8408 59.4968 73.8408C63.9135 73.8408 67.5839 72.4352 67.5839 72.4352H131.495C131.495 72.4352 129.936 55.8374 113.819 55.8374H91.9669H91.9698Z" fill="#00612C"/>
<path d="M67.8124 61.6035V24.754C67.8124 7.59618 56.3961 0 37.6504 0C27.4981 0 15.94 2.25115 9.03298 5.48645C9.87756 10.4101 14.3724 16.7508 28.4323 17.2473C29.5864 17.2877 29.2943 17.2386 30.3818 17.3598C29.8843 16.4824 30.1215 14.6065 31.0268 13.8936C31.0268 13.8936 32.4846 16.9211 38.4401 18.6239C44.1439 20.0237 46.426 22.2806 45.1823 24.6154C48.0833 24.9589 55.028 27.9489 47.1491 31.7152C47.1491 31.7152 50.6576 28.7108 44.2249 29.3024C43.9848 29.3255 43.7476 29.3371 43.5105 29.3573C43.2125 29.3832 42.9349 29.4063 42.6774 29.4236C33.3841 30.1769 24.1227 31.6315 16.9292 35.0255C9.03587 38.6822 3.67914 44.7286 3.67914 54.2931C3.67914 67.7942 14.2509 73.8434 25.6672 73.8434C37.6475 73.8434 44.6963 67.2314 45.9632 64.4203C47.0913 69.2026 50.3336 73.8434 59.4968 73.8434C66.6844 73.8434 71.8994 71.0295 74.2972 68.077C70.9131 67.7942 67.8124 66.1087 67.8124 61.6064V61.6035ZM44.8381 46.5555C44.8381 52.1804 42.1597 59.3524 34.5469 59.3524C29.7542 59.3524 26.6506 56.5384 26.6506 51.7591C26.6506 48.2438 28.3427 45.9927 31.021 44.3043C34.1217 42.336 38.7727 41.6318 44.8352 40.7891V46.5555H44.8381Z" fill="#8FC73E"/>
<path d="M5.87737 79.9561H14.5633L20.3249 99.5266H14.4476L13.2328 95.3071H6.86368L5.70672 99.5266H0L5.87737 79.9561ZM10.1928 83.4915H10.135L8.10741 90.8251H11.9283L10.1899 83.4915H10.1928Z" fill="#00612C"/>
<path d="M22.5 79.9561H30.4628L36.1088 92.4846H36.1666V79.9561H41.2631V99.5266H34.4283L27.6514 86.1554H27.5935V99.5266H22.4971V79.9561H22.5Z" fill="#00612C"/>
<path d="M45.0579 79.9561H50.8485V99.5266H45.0579V79.9561Z" fill="#00612C"/>
<path d="M54.4987 79.9561H63.4767L66.4009 93.46H66.4588L69.4698 79.9561H78.361V99.5266H72.9175V84.7556H72.8597L69.2124 99.5266H63.6532L60.0058 84.7556H59.948V99.5266H54.5045V79.9561H54.4987Z" fill="#00612C"/>
<path d="M86.2631 79.9561H94.949L100.711 99.5266H94.8333L93.6156 95.3071H87.2465L86.0896 99.5266H80.3857L86.2631 79.9561ZM90.5786 83.4915H90.5207L88.4932 90.8251H92.314L90.5757 83.4915H90.5786Z" fill="#00612C"/>
<path d="M102.77 79.9561H108.561V94.727H116.003V99.5266H102.77V79.9561Z" fill="#00612C"/>
<path d="M133.059 87.0242C131.758 85.0184 128.975 84.4383 126.864 84.4383C125.562 84.4383 123.824 84.8337 123.824 85.9679C123.824 86.8655 124.663 87.1541 128.255 88.0257C131.179 88.7385 133.699 90.2941 133.699 93.7748C133.699 97.7056 130.022 100 125.938 100C123.072 100 120.871 99.2612 118.901 97.9942V92.7185C120.119 94.5396 123.332 95.5151 125.418 95.5151C126.575 95.5151 128.429 95.3044 128.429 93.9854C128.429 93.1687 127.966 92.9291 124.026 91.9017C119.884 90.8194 118.207 89.0272 118.207 86.1266C118.207 81.9591 121.825 79.48 126.285 79.48C128.689 79.48 131.121 80.0081 133.062 81.3011V87.0242H133.059Z" fill="#00612C"/>
</g>
<defs>
<clipPath id="clip0_424_60">
<rect width="133.696" height="100" fill="white"/>
</clipPath>
</defs>
</svg>
