<svg width="233" height="80" viewBox="0 0 233 80" fill="none" xmlns="http://www.w3.org/2000/svg">
<g clip-path="url(#clip0_429_135)">
<path d="M0 71.2971L11.3982 7.25244C11.7671 5.16969 12.7815 3.44026 14.4415 2.06416C16.1014 0.688052 17.9642 0 20.0299 0H33.4754C35.3936 0 37.0351 0.706648 38.3999 2.11994C39.8016 3.53324 40.5025 5.26267 40.5025 7.30823C40.5025 7.82892 40.4656 8.23803 40.3918 8.53556L36.8506 28.4519H27.6656L30.6535 11.6597V11.325C30.6535 10.6555 30.4322 10.0976 29.9896 9.65132C29.5469 9.24221 28.9936 9.03766 28.3296 9.03766H23.1838C22.4092 9.03766 21.6899 9.298 21.0259 9.81869C20.3988 10.3022 20.0115 10.9159 19.8639 11.6597L9.7383 68.2845V68.5635C9.7383 69.1957 9.95963 69.7536 10.4023 70.2371C10.8449 70.7206 11.3982 70.9623 12.0622 70.9623H17.1527C19.0708 70.9623 20.1959 70.0325 20.5279 68.1729L23.5158 51.4365H32.7561L28.9936 72.6918C28.6247 74.7745 27.5919 76.5225 25.895 77.9358C24.2351 79.3119 22.3538 80 20.2512 80H7.02707C5.07203 80 3.4121 79.2934 2.04726 77.8801C0.682419 76.4296 0 74.7001 0 72.6918V71.2971Z" fill="black"/>
<path d="M34.1394 80L48.5809 0H58.0978L51.9007 34.3096H62.137L68.3341 0H77.8511L63.465 80H53.8927L60.5324 43.2357H50.2961L43.7117 80H34.1394Z" fill="black"/>
<path d="M84.4909 0H106.015L104.465 8.92608H92.5139L88.0321 34.3096H99.9283L98.2684 43.2357H86.4275L81.503 71.0739H93.2332L91.6286 80H70.1047L84.4909 0Z" fill="black"/>
<path d="M95.5018 80L121.673 0H131.19L128.701 80H119.682L120.346 66.834H109.501L105.627 80H95.5018ZM120.788 57.7964L122.559 22.371L112.156 57.7964H120.788Z" fill="black"/>
<path d="M134.234 80L147.071 9.03766H140.265L141.869 0H164.943L163.227 9.03766H156.643L143.917 80H134.234Z" fill="black"/>
<path d="M156.864 71.2971L168.262 7.25244C168.631 5.16969 169.646 3.44026 171.306 2.06416C172.966 0.688052 174.828 0 176.894 0H190.34C192.258 0 193.899 0.706648 195.264 2.11994C196.666 3.53324 197.367 5.26267 197.367 7.30823C197.367 7.82892 197.33 8.23803 197.256 8.53556L193.715 28.4519H184.53L187.518 11.6597V11.325C187.518 10.6555 187.296 10.0976 186.854 9.65132C186.411 9.24221 185.858 9.03766 185.194 9.03766H180.048C179.273 9.03766 178.554 9.298 177.89 9.81869C177.263 10.3022 176.876 10.9159 176.728 11.6597L166.602 68.2845V68.5635C166.602 69.1957 166.824 69.7536 167.266 70.2371C167.709 70.7206 168.262 70.9623 168.926 70.9623H174.017C175.935 70.9623 177.06 70.0325 177.392 68.1729L180.38 51.4365H189.62L185.858 72.6918C185.489 74.7745 184.456 76.5225 182.759 77.9358C181.099 79.3119 179.218 80 177.115 80H163.891C161.936 80 160.276 79.2934 158.911 77.8801C157.547 76.4296 156.864 74.7001 156.864 72.6918V71.2971Z" fill="#BF0426"/>
<path d="M192.497 71.2971L203.896 7.25244C204.265 5.16969 205.279 3.44026 206.939 2.06416C208.599 0.688052 210.462 0 212.527 0H225.973C227.891 0 229.533 0.706648 230.897 2.11994C232.299 3.53324 233 5.26267 233 7.30823C233 7.82892 232.963 8.23803 232.889 8.53556L229.348 28.4519H220.163L223.151 11.6597V11.325C223.151 10.6555 222.93 10.0976 222.487 9.65132C222.044 9.24221 221.491 9.03766 220.827 9.03766H215.681C214.907 9.03766 214.187 9.298 213.523 9.81869C212.896 10.3022 212.509 10.9159 212.361 11.6597L202.236 68.2845V68.5635C202.236 69.1957 202.457 69.7536 202.9 70.2371C203.342 70.7206 203.896 70.9623 204.56 70.9623H209.65C211.568 70.9623 212.693 70.0325 213.025 68.1729L216.013 51.4365H225.254L221.491 72.6918C221.122 74.7745 220.089 76.5225 218.393 77.9358C216.733 79.3119 214.851 80 212.749 80H199.525C197.57 80 195.91 79.2934 194.545 77.8801C193.18 76.4296 192.497 74.7001 192.497 72.6918V71.2971Z" fill="#BF0426"/>
</g>
<defs>
<clipPath id="clip0_429_135">
<rect width="233" height="80" fill="white"/>
</clipPath>
</defs>
</svg>
