<?xml version="1.0" encoding="UTF-8"?><svg id="Layer_2" xmlns="http://www.w3.org/2000/svg" viewBox="0 0 986.92 404.96"><defs><style>.cls-1{fill:#fff;}</style></defs><g id="Layer_1-2"><g><path class="cls-1" d="M256.19,209.59c-9.5,12.13-15.57,23.25-15.57,31.74,0,4.85,3.64,5.86,7.08,5.86,15.97,0,44.69-20.83,61.27-34.78,1.62-1.42,3.23-2.43,4.45-2.43s3.84,2.22,3.84,6.27c0,5.86-42.46,43.27-71.17,43.27-14.36,0-25.48-12.94-25.48-27.9,0-29.52,52.77-81.48,89.17-106.56,10.11-6.88,25.07-17.19,34.57-17.19,12.13,0,25.48,11.53,25.48,20.83,0,5.26-3.23,9.3-6.67,13.34-22.44,25.68-90.58,72.18-99.48,72.18-3.23,0-5.05-1.01-7.48-4.65Zm8.7-10.51c.2,.61,.61,1.21,1.41,1.21,4.85,0,84.72-61.06,84.72-71.17,0-2.43-.81-3.24-2.83-3.24-3.03,0-52.57,38.01-83.3,73.19Z"/><path class="cls-1" d="M323.72,239.51c20.02-11.73,38.01-28.31,83.3-65.51,1.01-.81,3.84-2.63,6.07-2.63,4.04,0,15.16,6.87,15.16,14.96,0,2.43-10.31,10.72-19.61,20.02-36.6,36.6-63.34,64.8-92.86,107.46-2.02,3.03-5.46,10.11-7.28,10.11-2.43,0-12.94-8.29-12.94-19.81,0-12.13,5.31-15.47,14.41-25.78,12.13-13.95,22.04-23.86,37.21-38.82,.61-.61,1.01-1.42,1.01-1.82s-.2-.61-.4-.61c-.4,0-1.01,.4-1.42,.81-25.68,21.23-30.33,21.23-33.16,21.23-4.25,0-7.68-2.02-12.54-11.32-1.82-3.64-3.84-10.11-3.84-13.55,0-20.62,27.7-40.24,60.86-66.72,.61-.4,1.41-.61,2.43-.61,8.9,0,18.6,11.73,18.6,14.76,0,.4-.2,1.01-.81,1.21-20.62,15.97-40.64,32.55-58.23,51.76-.81,1.01-1.21,2.02-1.21,2.83,0,1.62,1.01,2.83,2.83,2.83,.61,0,1.41-.2,2.43-.81Z"/><path class="cls-1" d="M415.31,233.45c0-13.95,13.75-28.1,27.09-41.25,11.32-11.32,22.24-20.22,27.5-23.86,.61-.4,2.83-1.21,3.44-1.21,10.11,0,19.81,9.91,19.81,13.14,0,1.82-1.42,2.43-2.43,3.24-15.77,12.94-53.58,45.09-53.58,53.78,0,1.01,.81,1.42,1.62,1.42,1.82,0,4.04-1.01,5.05-1.82,25.88-19.41,47.31-40.03,70.37-63.08,1.41-1.42,2.83-1.82,3.44-1.82,6.07,0,20.22,9.3,20.22,13.55,0,.61-.2,1.21-.61,1.62-12.33,12.33-50.75,43.88-50.75,51.16,0,1.62,.81,2.02,2.22,2.02,6.67,0,41.65-27.5,51.15-39.63,4.04-21.03,29.12-38.42,33.97-38.42,2.02,0,7.48,4.65,7.48,7.68,0,8.29-15.37,23.86-24.87,33.56,1.62,1.62,3.64,2.02,5.26,2.02,11.52,0,26.08-11.53,26.89-11.53s1.01,.61,1.01,.81c0,5.66-22.85,24.06-36.39,24.06-3.24,0-5.66-1.01-7.48-3.44-41.85,41.65-54.79,42.66-58.84,42.66-7.89,0-17.79-7.48-17.79-18.2,0-2.22,.61-4.65,1.62-7.28-3.23,3.84-28.31,26.08-41.45,26.08-11.32,0-13.95-20.62-13.95-25.27Z"/><path class="cls-1" d="M551.59,240.12c0-1.01,.61-2.83,1.82-4.65,33.77-49.34,117.07-120.1,134.05-135.88,1.01-1.01,1.62-1.62,2.63-1.62,2.22,0,7.48,12.74,7.48,14.96,0,5.05-3.44,9.3-7.48,13.34-33.97,34.78-58.64,51.36-64.5,58.84,13.14-6.47,20.83-11.32,31.34-11.32,6.27,0,18,6.47,18,14.76,0,2.43-.81,3.44-4.25,6.47-9.71,8.29-40.64,32.55-40.64,42.87,0,2.02,1.21,2.83,2.63,2.83,4.04,0,16.58-8.29,28.31-17.39,11.53-8.9,10.92-9.71,12.94-9.71s4.04,3.24,4.04,6.07c0,5.66-38.21,38.01-52.17,38.01-11.52,0-17.39-14.15-17.39-24.26,0-12.74,15.57-27.7,29.32-41.25-15.77,6.67-33.56,21.84-61.67,56.21-1.62,1.82-5.05,9.91-7.28,9.91-3.84,0-17.19-10.72-17.19-18.2Z"/><path class="cls-1" d="M694.54,222.33c-3.84,5.86-6.07,10.92-6.07,14.56,0,3.24,1.62,7.48,7.88,7.48,3.64,0,8.09-1.21,10.51-2.02,37-13.55,56.41-31.54,58.23-31.54,1.62,0,1.82,1.21,1.82,2.02,0,2.22-8.09,11.53-16.38,19.01-14.76,13.55-34.78,27.7-54.59,27.7-8.9,0-28.11-20.83-28.11-28.91,0-19.21,15.17-35.59,30.94-49.74,16.17-14.56,28.51-21.03,36.19-21.03,4.25,0,9.91,4.25,14.96,9.91,7.28,6.67,7.88,10.11,7.88,12.74,0,19.41-33.36,46.91-48.53,46.91-4.25,0-10.31-2.43-14.76-7.08Zm5.86-7.68c1.62,2.43,3.84,2.63,4.85,2.63,11.53,0,38.21-28.51,38.21-34.78,0-1.62-1.01-2.22-2.43-2.22s-3.23,.81-4.25,1.42c-13.55,9.3-27.09,21.63-36.39,32.96Z"/><path class="cls-1" d="M779.47,222.33c-3.84,5.86-6.07,10.92-6.07,14.56,0,3.24,1.62,7.48,7.88,7.48,3.64,0,8.09-1.21,10.51-2.02,37-13.55,56.41-31.54,58.23-31.54,1.62,0,1.82,1.21,1.82,2.02,0,2.22-8.09,11.53-16.38,19.01-14.76,13.55-34.78,27.7-54.59,27.7-8.9,0-28.11-20.83-28.11-28.91,0-19.21,15.17-35.59,30.94-49.74,16.17-14.56,28.51-21.03,36.19-21.03,4.25,0,9.91,4.25,14.96,9.91,7.28,6.67,7.88,10.11,7.88,12.74,0,19.41-33.36,46.91-48.53,46.91-4.25,0-10.31-2.43-14.76-7.08Zm5.86-7.68c1.62,2.43,3.84,2.63,4.85,2.63,11.53,0,38.21-28.51,38.21-34.78,0-1.62-1.01-2.22-2.43-2.22s-3.23,.81-4.25,1.42c-13.55,9.3-27.09,21.63-36.39,32.96Z"/><path class="cls-1" d="M873.28,209.59c-9.5,12.13-15.57,23.25-15.57,31.74,0,4.85,3.64,5.86,7.08,5.86,15.97,0,44.68-20.83,61.26-34.78,1.62-1.42,3.24-2.43,4.45-2.43s3.84,2.22,3.84,6.27c0,5.86-42.46,43.27-71.17,43.27-14.36,0-25.48-12.94-25.48-27.9,0-29.52,52.77-81.48,89.17-106.56,10.11-6.88,25.07-17.19,34.58-17.19,12.13,0,25.48,11.53,25.48,20.83,0,5.26-3.24,9.3-6.67,13.34-22.44,25.68-90.58,72.18-99.48,72.18-3.23,0-5.05-1.01-7.48-4.65Zm8.69-10.51c.2,.61,.61,1.21,1.42,1.21,4.85,0,84.72-61.06,84.72-71.17,0-2.43-.81-3.24-2.83-3.24-3.03,0-52.57,38.01-83.3,73.19Z"/><path class="cls-1" d="M273.1,346.63c3.54,0,6.57,2.85,6.57,6.57v29.98c0,3.46-3.02,6.57-6.57,6.57h-20.65v15.21h-15.04v-58.33h35.69Zm-9.25,30.76c.43,0,.78-.43,.78-.78v-16.59c0-.43-.35-.86-.78-.86h-11.41v18.23h11.41Z"/><path class="cls-1" d="M313.02,346.63v44.93c0,.43,.43,.78,.78,.78h10.97c.52,0,.95-.35,.95-.78v-44.93h15.04v51.67c0,3.8-2.94,6.65-6.57,6.65h-29.55c-3.54,0-6.65-2.85-6.65-6.65v-51.67h15.04Z"/><path class="cls-1" d="M361.59,404.96v-58.33h35.95c4.75,0,7.78,3.02,7.78,7.34v12.96c0,3.97-2.59,7.78-7.95,9.07,5.36,1.3,8.38,4.93,8.38,8.81v12.7c0,4.58-3.02,7.43-7.78,7.43h-36.38Zm29.29-45.8c0-.43-.26-.95-.86-.95h-13.48v12.1h13.48c.6,0,.86-.43,.86-.95v-10.2Zm0,22.81c0-.43-.26-.95-.86-.95h-13.48v12.88h13.48c.6,0,.86-.43,.86-.86v-11.06Z"/><path class="cls-1" d="M425.19,346.63h14.95v45.71h18.58v12.62h-33.53v-58.33Z"/><path class="cls-1" d="M490.69,404.96h-14.95v-58.33h14.95v58.33Z"/><path class="cls-1" d="M510.3,392.34h21.86c.61,0,.95-.35,.95-.78v-8.47c0-.43-.35-.78-.95-.78h-15.04c-4.06,0-6.83-2.76-6.83-6.83v-22.03c0-4.06,2.76-6.83,6.83-6.83h30.16v12.53h-21.08c-.52,0-.86,.43-.86,.95v8.55c0,.35,.35,.78,.86,.78h15.04c4.06,0,6.83,2.77,6.83,6.83v21.86c0,4.06-2.76,6.83-6.83,6.83h-30.93v-12.62Z"/><path class="cls-1" d="M611.66,404.96h-15.04v-23.16h-14.26v23.16h-15.04v-58.33h15.04v22.29h14.26v-22.29h15.04v58.33Z"/><path class="cls-1" d="M647.44,404.96h-14.95v-58.33h14.95v58.33Z"/><path class="cls-1" d="M682.09,372.9v32.06h-13.83v-58.33h13.83l17.46,32.14v-32.14h13.83v58.33h-14.26l-17.02-32.06Z"/><path class="cls-1" d="M754.67,369.18h26.44v12.36h-4.84v16.76c0,3.8-2.94,6.65-6.65,6.65h-29.21c-3.71,0-6.74-2.85-6.74-6.65v-45.11c0-3.54,3.02-6.57,6.74-6.57h36.12v12.53h-27.05c-.43,0-.86,.43-.86,.95v31.28c0,.52,.43,.86,.86,.86h12.1c.6,0,.95-.35,.95-.86v-9.85h-7.86v-12.36Z"/><path class="cls-1" d="M181.49,20.13V5c0-2.76-2.24-5-5-5h-39.64c-2.76,0-5,2.24-5,5V21.04c-19.38,3.81-37.33,11.62-52.94,22.55l-12.07-12.07c-1.95-1.95-5.12-1.95-7.07,0l-28.03,28.03c-1.95,1.95-1.95,5.12,0,7.07l12.17,12.17c-10.85,15.69-18.56,33.71-22.25,53.16H5c-2.76,0-5,2.24-5,5v39.64c0,2.76,2.24,5,5,5H21.05c3.28,20.24,10.88,39.03,21.83,55.39l-11.13,11.13c-1.95,1.95-1.95,5.12,0,7.07l28.03,28.03c1.95,1.95,5.12,1.95,7.07,0l10.45-10.45c6.76,4.91,13.97,9.23,21.56,12.89,.4,.19,.81,.35,1.24,.48,2.45,.74,11.21,3.34,14.07,3.34,2.02,0,2.22-.4,2.22-2.22,0-12.33,20.7-44.68,27.57-54.18,11.12-15.37,23.45-30.73,35.79-45.09,18.4-1.42,36.39-2.63,53.38-2.63,2.02,0,3.24,0,3.24-.81s-2.83-5.66-5.86-10.31c-3.24-5.05-6.67-9.91-12.54-9.91-3.44,0-9.91,.4-17.79,1.01,14.96-15.77,29.72-29.32,42.26-38.42,16.4-11.84,32.48-14.45,39.47-16.81l8.65-2.53c-17.96-45.7-59.18-79.67-109.08-87.42Zm19.9,74.01c-34.78,0-35.07-2.83-80.56-2.83-42.66,0-54.79,12.33-54.79,34.98,0,15.97,14.15,17.19,36.6,17.19,17.59,0,63.38-9.1,63.38-20.22,0-.81-.4-1.82-1.21-2.63h15.57c12.94,0,24.26-.4,32.15-1.42-14.15,11.52-33.16,29.12-52.77,49.54-28.91,2.43-59.85,5.05-73.4,5.05-5.66,0-10.11-.61-17.39-.61-1.21,0-2.22,.4-2.22,1.21,0,1.62,5.46,19.01,23.45,19.01,15.57,0,31.95-.81,48.53-2.02-9.71,10.92-19.21,22.04-27.9,33.16-3.99,5.09-10.68,15.75-16.45,25.72-23.2-16.42-39.87-41.45-45.36-70.44-1.18-6.52-1.8-13.24-1.8-20.11,0-62.15,50.38-112.53,112.53-112.53,7,0,13.85,.65,20.49,1.87,27.66,5.34,51.69,20.85,68.03,42.51-11.45,1.38-26.68,2.56-46.88,2.56Zm-42.46,27.5c0,3.24-26.57,10.31-59.53,10.31-5.26,0-22.85,0-22.85-7.28,0-6.47,18.2-6.67,27.3-6.67,5.26,0,25.77,1.62,54.28,2.43,.61,.4,.81,.81,.81,1.21Z"/></g></g></svg>