<svg width="159" height="100" viewBox="0 0 159 100" fill="none" xmlns="http://www.w3.org/2000/svg">
<g clip-path="url(#clip0_426_73)">
<path d="M54.9263 52.4463H74.247V43.5015C74.247 33.2436 65.9144 24.6739 55.9411 24.6739H19.3209V0H0V100H19.3209V44.5452H54.9341V52.4463H54.9263Z" fill="#0D05F2"/>
<path d="M74.247 72.2275H54.9263V99.9998H74.247V72.2275Z" fill="#0D05F2"/>
<path d="M103.296 52.4463V44.5452H158.095V24.6738H102.281C92.3074 24.6738 83.9748 33.2436 83.9748 43.5015V52.4463H103.296Z" fill="#0D05F2"/>
<path d="M103.296 80.1287V72.2275H83.9748V81.1724C83.9748 91.4301 92.3074 99.9998 102.281 99.9998H158.222V80.1287H103.296Z" fill="#0D05F2"/>
<path d="M140.328 52.4868H120.904V72.2683H140.328V52.4868Z" fill="#E1F25E"/>
</g>
<defs>
<clipPath id="clip0_426_73">
<rect width="158.519" height="100" fill="white"/>
</clipPath>
</defs>
</svg>
