<svg width="108" height="100" viewBox="0 0 108 100" fill="none" xmlns="http://www.w3.org/2000/svg">
<g clip-path="url(#clip0_429_79)">
<path d="M27.9263 52.4873V63.3592H29.097V52.4873" fill="#30375A"/>
<path d="M50.4077 55.3892V67.5194H51.5783V55.3892" fill="#30375A"/>
<path d="M72.5604 53.9956V63.7041H73.7325V53.9956" fill="#30375A"/>
<path d="M92.4416 56.6001V66.7817H93.6136V56.6001" fill="#30375A"/>
<path d="M7.90297 40.9034C11.0166 40.9149 13.5343 42.2523 13.5286 43.8888C13.5229 45.5254 10.9939 46.8426 7.88021 46.8297C4.76654 46.8182 2.25455 43.8442 2.25455 43.8442C2.25455 43.8442 4.7893 40.8904 7.90297 40.9034Z" fill="#98C73D"/>
<path d="M13.3878 42.008C12.8188 41.2933 11.9312 40.7338 10.8474 40.3369C9.76205 39.9415 8.47191 39.7142 7.08648 39.7085H7.0623C6.0979 39.7085 5.19182 39.94 4.37677 40.278C3.15491 40.7871 2.13362 41.5363 1.41245 42.1576C0.691284 42.7802 0.270248 43.2778 0.257446 43.2908L-0.00143433 43.5956L0.254601 43.9034C0.270248 43.9221 1.00991 44.8094 2.22038 45.7082C2.82633 46.1569 3.55034 46.6099 4.36539 46.955C5.18044 47.2987 6.08936 47.536 7.05518 47.5389H7.10497C8.94416 47.5389 10.6112 47.1477 11.8601 46.4862C12.4846 46.154 13.0052 45.7528 13.3835 45.2782C13.7605 44.8065 13.9937 44.2471 13.9952 43.6503V43.6417C13.9952 43.0434 13.7647 42.4826 13.3864 42.0066L13.3878 42.008ZM13.0592 43.6488C13.0564 43.9983 12.9284 44.3406 12.6552 44.6857C12.247 45.202 11.5045 45.6938 10.5373 46.0389C9.57144 46.387 8.38514 46.594 7.10639 46.594H7.05803C6.24156 46.5912 5.45354 46.3898 4.72526 46.0835C3.63427 45.6233 2.68551 44.923 2.01698 44.3362C1.68982 44.0486 1.42952 43.7912 1.25029 43.6028C1.56038 43.2821 2.11228 42.7558 2.8306 42.2366C3.38961 41.8325 4.04677 41.4342 4.76509 41.1408C5.48341 40.846 6.25863 40.6562 7.06087 40.6562H7.07936C8.79338 40.6619 10.3395 41.043 11.4192 41.624C11.9597 41.9131 12.3793 42.2525 12.6538 42.599C12.9284 42.9485 13.0564 43.2922 13.0578 43.6431V43.6488H13.0592Z" fill="#242C16"/>
<path d="M4.7836 53.1457C7.66969 49.8007 11.3637 48.3914 13.0336 49.9977C14.7035 51.6055 13.7192 55.6192 10.8331 58.9656C7.94706 62.3106 2.58312 62.1136 2.58312 62.1136C2.58312 62.1136 1.89751 56.4921 4.7836 53.1457Z" fill="#98C73D"/>
<path d="M14.062 50.9412C13.8885 50.4667 13.6168 50.0396 13.247 49.7002C12.9326 49.4111 12.5642 49.1983 12.1645 49.0602C11.7634 48.9222 11.331 48.8589 10.8787 48.8589C9.71939 48.8603 8.42784 49.2702 7.11921 50.0007C5.81059 50.7327 4.48632 51.7926 3.28295 53.1286C2.11088 54.43 1.44519 56.0119 1.06682 57.519C0.689881 59.029 0.598846 60.4714 0.598846 61.5241C0.598846 62.5236 0.681347 63.1721 0.682769 63.1865L0.733976 63.5849L1.13083 63.5992C1.13083 63.5992 1.20906 63.6021 1.33993 63.6021C1.89325 63.6021 3.4764 63.559 5.31274 63.0988C7.14624 62.6386 9.24857 61.7614 10.7976 60.0472C11.9185 58.8032 12.7932 57.4759 13.3921 56.1802C13.9909 54.8845 14.3166 53.6233 14.3181 52.4944C14.3181 51.9393 14.2384 51.4144 14.0635 50.9384L14.062 50.9412ZM12.5429 55.7818C11.9882 56.9812 11.1646 58.2352 10.1034 59.4115C8.74219 60.9258 6.81624 61.7499 5.08658 62.1827C3.57597 62.5624 2.22467 62.6415 1.57463 62.6559C1.55471 62.3869 1.53622 62.0015 1.53622 61.527C1.53622 60.5289 1.62299 59.1584 1.97575 57.7534C2.32708 56.347 2.94157 54.9147 3.97567 53.7685C5.1136 52.5044 6.36533 51.5078 7.57296 50.8319C8.77917 50.1546 9.94271 49.8066 10.8787 49.808C11.2442 49.808 11.5728 49.8598 11.863 49.959C12.1532 50.0582 12.4021 50.2049 12.6169 50.402C12.8686 50.6349 13.055 50.9225 13.1844 51.272C13.3124 51.6214 13.3807 52.0342 13.3807 52.4987C13.3807 53.4392 13.0991 54.5839 12.5429 55.7833V55.7818Z" fill="#242C16"/>
<path d="M106.855 51.0075C106.161 50.1706 104.96 50.0167 104.017 50.5488C93.8811 56.2795 64.3417 50.008 52.4631 53.7571C45.7393 55.8797 28.8765 50.8278 22.4756 46.0921C17.362 42.31 10.8559 43.1599 8.44206 43.6546C8.29982 43.6834 8.32116 43.8919 8.46482 43.8962C12.2982 44.0112 15.1089 44.7964 17.3137 45.806C17.8926 46.072 17.8599 46.9147 17.2639 47.1391C13.6652 48.4923 7.75646 51.5784 6.02538 57.6414C5.97417 57.8212 6.21598 57.9319 6.31555 57.7737C7.81051 55.375 12.3637 49.2387 19.9167 49.1164C21.4757 49.0906 22.9991 49.5263 24.3703 50.277C24.4613 50.3273 24.5538 50.3748 24.6448 50.4208C38.0952 57.1424 50.4361 57.581 59.7928 55.4066C67.5492 53.6033 91.6436 56.1084 100.255 57.092C101.861 57.2761 103.408 56.4694 104.223 55.0586C104.966 53.7744 102.729 52.4873 106.632 51.7769C107.202 51.6733 107.147 51.3598 106.855 51.009V51.0075Z" fill="#A34D24"/>
<path d="M6.38522 57.0473C6.38522 57.0473 9.22722 50.4321 16.2611 48.0147L18.0277 45.8374C18.0277 45.8374 19.5085 47.5415 18.0889 48.0147C15.9368 48.7323 9.52592 51.0936 6.38665 57.0473H6.38522Z" fill="white"/>
<path d="M11.038 43.6847C11.038 43.6847 17.9466 43.8788 21.753 46.8312C24.2295 48.7525 30.1994 51.7293 37.3115 53.5744C42.9812 55.0455 48.8544 54.6314 54.6038 53.5226C58.0816 52.8524 62.6461 52.7245 65.9632 52.9589C65.9632 52.9589 60.5723 52.1535 57.9963 52.8036C55.4203 53.455 44.7635 55.9415 35.9232 51.9163C35.9232 51.9163 26.255 48.4605 23.8027 47.1806C21.3505 45.9008 17.9481 42.3228 11.0394 43.6861L11.038 43.6847Z" fill="white"/>
<path d="M107.428 51.0202C107.368 50.9037 107.294 50.8016 107.213 50.7024C106.694 50.0754 105.94 49.7633 105.186 49.7647C104.707 49.7647 104.225 49.8884 103.788 50.1358C102.081 51.1021 99.7357 51.7349 96.9734 52.1146C94.211 52.4942 91.0319 52.6265 87.6509 52.6265C80.3026 52.6265 72.0028 52.0053 64.8395 52.0053C62.3816 52.0053 60.0559 52.0786 57.9436 52.2771C55.8313 52.4755 53.9338 52.7991 52.3237 53.3067C51.3038 53.6289 49.9952 53.7842 48.4988 53.7842C44.6113 53.7856 39.475 52.7488 34.6658 51.2129C32.2605 50.4464 29.9362 49.5562 27.8837 48.6128C25.8325 47.6709 24.0545 46.6757 22.7516 45.7108C21.1485 44.5244 19.4146 43.7809 17.7148 43.3336C16.015 42.8864 14.3494 42.7368 12.8672 42.7368C10.9384 42.7368 9.32253 42.9914 8.34817 43.1913C8.21447 43.2171 8.07791 43.3005 7.99541 43.4127C7.91149 43.5249 7.87593 43.6529 7.87593 43.7722C7.87593 43.9117 7.92145 44.0512 8.02244 44.1692C8.07365 44.2281 8.13908 44.2784 8.21304 44.3144C8.28701 44.3503 8.37093 44.369 8.44917 44.3705C12.2271 44.4841 14.9681 45.2535 17.1174 46.2386C17.1729 46.2644 17.2013 46.2946 17.2241 46.3306C17.2454 46.3665 17.2582 46.4126 17.2582 46.4615C17.2582 46.5132 17.2426 46.565 17.217 46.6038C17.1899 46.6427 17.1586 46.6729 17.096 46.6973C15.2668 47.3861 12.8487 48.5122 10.6511 50.2537C8.45485 51.9938 6.47058 54.3608 5.57019 57.5117C5.55312 57.5692 5.54459 57.6296 5.54459 57.6914C5.54459 57.8813 5.6342 58.0538 5.75084 58.1588C5.8689 58.2652 6.01398 58.3242 6.17756 58.3256C6.27286 58.3256 6.3767 58.3026 6.472 58.2509C6.56731 58.1991 6.64981 58.12 6.70528 58.0294C7.43356 56.8588 8.91999 54.7649 11.1318 52.963C13.3466 51.1597 16.2696 49.6526 19.9181 49.5936C19.958 49.5936 19.9992 49.5936 20.039 49.5936C21.4643 49.5936 22.8668 50.0006 24.1413 50.698C24.238 50.7513 24.3347 50.8016 24.4315 50.8505C33.4169 55.3416 41.9272 57.0529 49.3963 57.0529C53.1856 57.0529 56.7076 56.6129 59.8909 55.8723C60.8326 55.6537 62.0516 55.4955 63.4712 55.3948C64.8907 55.2942 66.5123 55.2481 68.2676 55.2481C78.6754 55.2481 93.7658 56.8315 100.195 57.5663C100.364 57.585 100.534 57.5951 100.702 57.5951C102.309 57.5951 103.801 56.7222 104.622 55.2999C104.794 55.0037 104.852 54.6902 104.851 54.4184C104.851 54.1581 104.805 53.9294 104.768 53.7324C104.73 53.5368 104.701 53.3714 104.703 53.2535C104.703 53.1557 104.717 53.0939 104.745 53.0349C104.768 52.9904 104.801 52.9415 104.869 52.8811C104.97 52.7905 105.152 52.6768 105.452 52.5661C105.751 52.4539 106.164 52.3447 106.708 52.2454C106.91 52.2066 107.09 52.1505 107.255 52.0196C107.336 51.9549 107.41 51.8672 107.459 51.7651C107.509 51.663 107.532 51.5494 107.532 51.4458C107.532 51.2762 107.481 51.1395 107.422 51.0231L107.428 51.0202ZM105.26 51.6285C104.74 51.8082 104.373 52.0182 104.118 52.3058C103.992 52.4482 103.901 52.6107 103.845 52.7746C103.79 52.9386 103.771 53.1011 103.771 53.2506C103.771 53.498 103.817 53.7137 103.854 53.9078C103.891 54.102 103.919 54.2717 103.919 54.4155C103.918 54.5679 103.895 54.6844 103.818 54.8196C103.162 55.9542 101.977 56.6445 100.707 56.6445C100.575 56.6445 100.441 56.6373 100.306 56.6215C93.8583 55.8852 78.7636 54.2976 68.2732 54.2976C66.5023 54.2976 64.8609 54.3436 63.4114 54.4457C61.9605 54.5492 60.7031 54.7089 59.6875 54.9447C56.5724 55.6695 53.1202 56.1009 49.402 56.1009C42.0737 56.1009 33.7127 54.4241 24.8525 49.9963C24.7657 49.9531 24.6804 49.9071 24.5922 49.8596C23.1996 49.0975 21.6478 48.6416 20.0447 48.6416C19.9992 48.6416 19.9537 48.6416 19.9082 48.6416C16.0051 48.7034 12.8743 50.3256 10.5501 52.221C9.29977 53.2406 8.2799 54.3378 7.48192 55.3272C8.43779 53.58 9.77344 52.1534 11.2343 50.9957C13.3224 49.3391 15.6594 48.2461 17.4275 47.5817C17.6735 47.4897 17.8755 47.3214 18.005 47.1201C18.1358 46.9188 18.1984 46.6887 18.1984 46.4586C18.1984 46.2443 18.1429 46.0272 18.0263 45.8344C17.9111 45.6417 17.7304 45.4749 17.5071 45.3743C15.9425 44.6567 14.0777 44.0527 11.7862 43.7104C12.1332 43.6931 12.4945 43.6831 12.8672 43.6831C14.2868 43.6831 15.8742 43.8283 17.4787 44.2497C19.0832 44.671 20.7033 45.3685 22.1968 46.4744C23.578 47.4954 25.403 48.5122 27.4939 49.4742C30.6304 50.9152 34.3671 52.2253 38.0753 53.1787C41.7835 54.1322 45.4605 54.729 48.4959 54.729C50.0563 54.729 51.4475 54.5722 52.601 54.2084C54.1188 53.7295 55.9594 53.4117 58.029 53.2176C60.0986 53.0234 62.3987 52.9501 64.8381 52.9501C71.9516 52.9501 80.2529 53.5713 87.6494 53.5713C91.0547 53.5713 94.2694 53.439 97.0986 53.0508C99.9277 52.6596 102.371 52.0182 104.245 50.9612C104.541 50.7944 104.868 50.711 105.186 50.711C105.691 50.711 106.165 50.9138 106.495 51.3107C106.496 51.3135 106.498 51.315 106.501 51.3179C106.004 51.4099 105.598 51.512 105.259 51.627L105.26 51.6285Z" fill="#242C16"/>
<path d="M86.3095 48.3528C89.2198 45.3472 91.0177 41.1983 91.0192 36.6123C91.0192 32.0262 89.2198 27.8774 86.3095 24.8718C86.0691 24.623 85.8188 24.3857 85.5628 24.1542C85.5628 24.1542 84.3409 22.5421 81.3154 21.4693C81.3154 21.4693 81.3154 21.4693 81.314 21.4693C79.9086 20.6898 78.3027 20.2469 76.5944 20.2469C74.0525 20.2469 71.7383 21.2262 69.9745 22.8398L72.6301 28.4454C72.7425 28.6841 72.6443 28.9703 72.4111 29.0825C72.3698 29.1012 70.9574 29.7756 68.7739 29.7771C68.2605 29.7771 67.7043 29.7368 67.114 29.6433C66.9632 29.5959 66.8082 29.5542 66.6531 29.5168C66.619 29.8619 66.6019 30.2114 66.6019 30.5651C66.6019 33.4154 67.7199 35.9925 69.5278 37.862C71.3371 39.73 73.8321 40.8834 76.593 40.8848C79.3539 40.8848 81.8488 39.73 83.6581 37.862C85.3266 36.1391 86.4034 33.8123 86.5613 31.2252C86.5656 31.1634 86.6495 31.1519 86.6651 31.2123C86.7092 31.3805 86.7505 31.5502 86.7889 31.7214C87.0748 33.0056 86.9425 34.3645 86.3778 35.5467C84.5984 39.2699 80.8873 41.8311 76.5944 41.8311C73.8875 41.8311 71.4125 40.81 69.5051 39.1246L63.9022 39.9041C63.649 39.9932 63.7386 40.915 63.6717 40.6461C63.5693 40.2262 63.5252 39.7948 63.5252 39.3619C63.5281 37.78 64.0956 36.1708 64.6475 34.9383C65.2022 33.7073 65.7541 32.8574 65.7627 32.8445L65.9348 32.9639C65.7726 32.1902 65.6845 31.3892 65.6845 30.5651C65.6845 30.1553 65.7072 29.7512 65.7485 29.3528L64.1027 29.2622C60.9279 33.2285 57.928 35.2835 52.5555 35.2835C49.54 35.2835 44.8048 33.4427 41.8134 30.8254C41.7636 30.7808 48.2684 34.2668 52.3735 33.9446C57.6037 33.5348 60.972 31.2942 63.5167 28.6669C66.4839 25.6023 68.3173 22.5564 68.3188 17.8798C68.3188 13.2032 66.4839 8.97375 63.5167 5.90919C60.5481 2.84464 56.453 0.950684 51.924 0.950684C47.395 0.950684 43.2998 2.84464 40.3313 5.90919C37.3641 8.97375 35.5306 13.2032 35.5292 17.8798C35.5292 17.8856 35.5292 17.8899 35.5292 17.8956C35.532 18.7311 35.9431 19.5163 36.6273 19.9852C36.8435 20.1333 37.0611 20.3001 37.2787 20.487C38.1749 21.2593 38.7936 22.0431 39.1848 22.8541C39.5774 23.6652 39.7338 24.4979 39.7338 25.3348C39.7338 26.1632 39.5845 26.9944 39.3711 27.8515C39.1563 28.7086 38.8761 29.5916 38.5988 30.5234C38.044 32.3872 37.5035 34.4422 37.5035 36.8467C37.5035 38.791 37.8548 40.9668 38.8562 43.4676C39.5134 45.1085 40.6214 46.6573 41.866 47.9861C42.4692 48.6318 43.1036 49.2243 43.7323 49.7549C47.1859 52.6599 50.4973 53.5213 53.2696 53.5241C55.3705 53.5241 57.1627 53.0222 58.4372 52.5117C59.6634 52.0213 60.4073 51.5252 60.4855 51.472C62.8268 49.6902 64.3004 47.5374 65.1994 45.2609C65.7186 43.9436 66.0443 42.5846 66.225 41.2372C66.5279 41.1149 66.6787 44.0198 66.0486 45.619C65.5451 46.8974 64.8623 48.1443 63.9676 49.3163C66.7968 51.6216 71.1295 53.2193 74.9387 53.2193C79.3795 53.2193 83.3964 51.3613 86.3081 48.3557L86.3095 48.3528ZM75.4138 31.3273C74.2858 31.3273 73.3171 32.1715 72.8691 33.3881C72.8463 33.2385 72.8335 33.0847 72.8335 32.9265C72.8335 31.5617 73.7055 30.4558 74.7822 30.4558C75.4607 30.4558 76.0567 30.8959 76.4066 31.5617C76.098 31.4136 75.7637 31.3288 75.4138 31.3288V31.3273Z" fill="#A4B2DB"/>
<path d="M63.8709 39.3601C63.8709 39.5442 63.8808 39.7254 63.9007 39.9023L68.2718 38.388C67.0841 37.1455 66.1752 35.6297 65.6517 33.9414C65.4526 34.288 65.1923 34.7697 64.9306 35.3363C64.3929 36.4998 63.868 38.0184 63.8709 39.3601Z" fill="white"/>
<path d="M65.3772 39.9027C65.3772 39.9027 66.0429 41.8211 65.9604 42.9528C65.8793 44.0846 62.9918 48.9885 62.9918 48.9885C62.9918 48.9885 63.2564 51.4591 69.3145 52.8023C75.3726 54.1454 81.2699 53.75 86.8458 48.304C92.4217 42.8579 93.359 32.8215 87.5029 25.5664C81.6483 18.3113 72.7468 19.1425 70.1722 21.7052C70.1722 21.7052 65.5209 27.9838 65.8423 30.5638C66.1638 33.1422 65.134 35.3598 66.5991 35.7538C68.0642 36.1478 69.7896 39.3936 65.3758 39.9027H65.3772Z" fill="#86A0D3"/>
<path d="M79.4193 40.0681C73.5206 41.2948 67.7555 37.4536 66.5422 31.4885C65.8068 27.8731 66.9163 24.3096 69.2149 21.79C66.5151 24.3254 65.1525 28.1809 65.949 32.0953C67.1623 38.0591 72.9274 41.9002 78.8262 40.6749C81.1504 40.1918 83.1446 38.9924 84.6396 37.3544C83.2271 38.6818 81.4477 39.6467 79.4207 40.0681H79.4193Z" fill="white"/>
<path d="M33.441 16.4072C33.424 16.6776 33.4126 16.9422 33.4055 17.1895C33.5691 17.0687 33.7355 16.9508 33.9019 16.8358C33.7426 16.6934 33.589 16.5496 33.4396 16.4072H33.441Z" fill="#070808"/>
<path d="M66.6005 29.6416C66.2008 29.5194 65.7883 29.4273 65.3601 29.3799C65.7868 29.4949 66.2008 29.5798 66.6005 29.6416Z" fill="#070808"/>
<path d="M57.6378 17.0458C57.066 16.38 56.81 15.5459 56.8512 14.7305C55.8214 15.799 55.756 17.5045 56.7403 18.6507C57.7786 19.8601 59.5908 19.991 60.7871 18.9412C61.1526 18.6205 61.4172 18.2279 61.5793 17.8008C60.2793 18.4867 58.6392 18.2135 57.6364 17.0458H57.6378Z" fill="#070808"/>
<path d="M68.2206 22.3047C68.1609 22.5391 68.0954 22.7721 68.0272 23.0022C68.141 22.8756 68.259 22.7505 68.3785 22.6297L68.2206 22.3047Z" fill="#98C73D"/>
<path d="M46.4021 53.1862C45.8388 52.9561 45.1205 52.5549 44.314 52.0069C43.6896 51.5813 43.0139 51.0679 42.3326 50.4783C42.1363 50.3086 41.9386 50.1331 41.7423 49.9519C39.9827 48.3226 38.2502 46.2187 37.31 43.8286C36.2873 41.2199 35.9175 38.9089 35.9175 36.8452C35.9175 34.9311 36.2347 33.2342 36.623 31.7113C37.0127 30.1883 37.4736 28.8351 37.7723 27.6127C37.9729 26.7973 38.0995 26.0423 38.0995 25.3334C38.0995 24.6158 37.9729 23.9471 37.6571 23.2755C37.3399 22.6039 36.825 21.9222 36.0199 21.2133C35.4822 20.7401 34.9716 20.4324 34.4908 20.2411C34.01 20.0499 33.5605 19.9736 33.1381 19.9736C32.2334 19.9736 31.4511 20.3317 30.885 20.7071C30.8807 20.7099 30.875 20.7142 30.8707 20.7171C30.37 21.0508 29.9504 21.5023 29.6233 22.0229C27.649 25.1622 26.4897 28.9832 26.4897 33.1091C26.4897 35.7695 27.1355 38.3739 28.262 40.7899C29.3872 43.2059 30.9945 45.4306 32.9062 47.3202C36.7297 51.1024 41.7707 53.5284 46.5643 53.5256C46.7919 53.5256 47.0166 53.5184 47.2399 53.5083C46.9668 53.4004 46.6923 53.284 46.4149 53.156L46.4021 53.1905V53.1862Z" fill="#6893CC"/>
<path d="M64.4014 39.3601C64.4014 39.5442 64.4099 39.7254 64.427 39.9023L68.2704 38.388C67.2263 37.1455 66.4269 35.6297 65.9661 33.9414C65.7911 34.288 65.5621 34.7697 65.3331 35.3363C64.8594 36.4998 64.3986 38.0184 64.4014 39.3601Z" fill="#F1AFCE"/>
<path d="M62.2194 49.565C62.4214 49.4211 62.6831 49.227 62.9918 48.9897C63.1198 49.1005 63.2535 49.2069 63.3887 49.3133C64.3033 48.1427 65.0002 46.8944 65.5152 45.616C66.1595 44.0168 66.0045 41.1133 65.6958 41.2341C65.5095 42.5816 65.1781 43.9406 64.6475 45.2579C63.7286 47.5344 62.2251 49.6872 59.8326 51.469C59.7529 51.5222 58.992 52.0183 57.7402 52.5087C56.4387 53.0192 54.6081 53.5211 52.4616 53.5211C49.6296 53.5182 46.2471 52.6583 42.7195 49.7519C42.078 49.2213 41.4293 48.6288 40.8134 47.9831C39.5418 46.6528 38.4096 45.1055 37.7396 43.4646C36.7169 40.9638 36.3584 38.788 36.357 36.8437C36.357 34.4392 36.9089 32.3842 37.475 30.5204C37.7581 29.5885 38.0454 28.7056 38.2645 27.8485C38.4835 26.9914 38.6357 26.1601 38.6357 25.3318C38.6357 24.4948 38.4764 23.6622 38.0753 22.8511C37.6756 22.04 37.044 21.2563 36.128 20.484C35.5462 19.9936 34.9701 19.6456 34.4083 19.4127C34.4325 19.7794 34.1779 19.9735 33.8308 19.8441L33.8208 19.8398C33.6587 19.7794 33.5435 20.1058 33.5235 19.9332C33.4923 19.6643 33.4695 19.3925 33.4496 19.1207C33.4482 19.1207 33.4453 19.1207 33.4439 19.1207C33.4524 19.2358 33.4581 19.2991 33.4581 19.2991C32.3116 18.8849 31.0941 19.1926 30.215 19.5637C29.4611 19.8815 28.8111 20.4136 28.3431 21.0909C26.016 24.4589 24.642 28.6135 24.642 33.1075C24.642 35.9305 25.3574 38.6772 26.5878 41.2068C28.4341 45.0005 31.4369 48.3066 34.9659 50.6737C38.4949 53.0394 42.5545 54.4703 46.533 54.4703C47.5827 54.4703 48.587 54.3667 49.5442 54.1755C50.5627 54.3825 51.5399 54.4717 52.4616 54.4703C54.7901 54.4703 56.7559 53.918 58.1442 53.3672C59.5325 52.815 60.3432 52.2642 60.3646 52.2484L60.3717 52.2427L60.3788 52.2369C61.2963 51.5553 62.0928 50.8175 62.7827 50.0381C62.5878 49.8828 62.3986 49.726 62.2166 49.565H62.2194ZM46.5344 53.5226C41.5303 53.5254 36.2674 51.0994 32.2775 47.3172C30.2819 45.4276 28.6048 43.2029 27.4299 40.7869C26.255 38.3709 25.5808 35.7665 25.5808 33.1061C25.5808 28.9802 26.7912 25.1607 28.8523 22.0199C29.1937 21.4993 29.6318 21.0478 30.1553 20.7141C30.161 20.7112 30.1652 20.7069 30.1709 20.7041C30.7612 20.3287 31.5791 19.9706 32.5222 19.9706C32.9617 19.9706 33.4325 20.0469 33.9332 20.2381C34.4353 20.4294 34.9687 20.7386 35.5292 21.2103C36.3698 21.9192 36.9075 22.6009 37.2389 23.2725C37.5689 23.9455 37.6998 24.6128 37.7012 25.3304C37.7012 26.0393 37.5689 26.7943 37.3598 27.6097C37.0483 28.8335 36.5661 30.1853 36.1593 31.7083C35.7525 33.2312 35.4225 34.9281 35.4225 36.8422C35.4225 38.9059 35.808 41.2169 36.8762 43.8256C37.8562 46.2157 39.6655 48.3196 41.5019 49.9489C41.7067 50.1316 41.913 50.3056 42.1178 50.4753C42.8304 51.0649 43.5345 51.5797 44.186 52.0039C45.0266 52.5519 45.7763 52.9531 46.3651 53.1832L46.3779 53.1487C46.6667 53.2766 46.954 53.3931 47.2385 53.501C47.0067 53.5125 46.772 53.5182 46.5344 53.5182V53.5226Z" fill="#45284C"/>
<path d="M68.8166 23.533L68.3785 22.6284C68.259 22.7507 68.141 22.8743 68.0272 23.0009C67.4468 24.9639 66.5422 26.7845 65.3772 28.3994C65.6787 28.4872 65.9732 28.5591 66.2619 28.6166C66.9959 28.7647 67.6801 28.8251 68.296 28.8251C69.6089 28.8251 70.6202 28.5677 71.1664 28.3879L68.8166 23.5315V23.533Z" fill="#E2908A"/>
<path d="M68.8166 23.533L68.3785 22.6284C68.259 22.7507 68.141 22.8743 68.0272 23.0009C67.4468 24.9639 66.5422 26.7845 65.3772 28.3994C65.6787 28.4872 65.9732 28.5591 66.2619 28.6166C66.9959 28.7647 67.6801 28.8251 68.296 28.8251C69.6089 28.8251 70.6202 28.5677 71.1664 28.3879L68.8166 23.5315V23.533Z" fill="#F38DBA"/>
<path d="M86.6978 31.7196C86.6594 31.5484 86.6168 31.3787 86.5727 31.2105C86.557 31.1501 86.4702 31.1616 86.4674 31.2234C86.3067 33.8105 85.2057 36.1374 83.5017 37.8602C81.6525 39.7283 79.105 40.8816 76.2843 40.883C73.4651 40.883 70.9161 39.7283 69.067 37.8602C67.2192 35.9907 66.0785 33.4151 66.077 30.5634C66.077 30.2096 66.0955 29.8601 66.1297 29.515C65.8779 29.456 65.6219 29.4086 65.3601 29.3784L65.2065 29.3496C65.1638 29.748 65.1411 30.1521 65.1411 30.5619C65.1411 31.025 65.1667 31.6879 65.188 32.1783C65.2065 32.5968 65.1055 33.011 64.895 33.3719C64.6788 33.743 64.3815 34.2851 64.0814 34.9351C63.5167 36.1676 62.9378 37.7768 62.9349 39.3587C62.9349 39.7958 62.9804 40.233 63.0885 40.6558C63.1554 40.9219 63.4342 41.0642 63.6916 40.9751L67.8024 39.5514C68.525 39.3011 69.3301 39.3946 69.9588 39.8347C71.7553 41.0916 73.9345 41.8279 76.2857 41.8293C80.671 41.8293 84.4618 39.2681 86.2796 35.5449C86.8571 34.3628 86.9923 33.0038 86.7007 31.7196H86.6978ZM64.3829 39.7354C64.1326 39.8217 63.8709 39.6333 63.8709 39.3659V39.3601C63.868 38.0169 64.3915 36.4998 64.9306 35.3364C65.1909 34.7697 65.4526 34.288 65.6517 33.9414C66.1766 35.6297 67.0855 37.1469 68.2718 38.388L64.3829 39.734V39.7354Z" fill="#45284C"/>
<path d="M79.6213 19.8127C79.4193 19.748 79.2145 19.6905 79.0068 19.6387C78.4805 19.4992 77.9457 19.3827 77.4009 19.2935C76.216 19.1512 75.0241 19.3036 74.0469 19.5265C74.0312 19.5294 74.0156 19.5337 73.9985 19.5366C73.98 19.5409 73.9615 19.5452 73.9416 19.5495C73.1991 19.7106 72.4865 19.945 71.8065 20.247H71.8051C70.8194 20.6856 69.9076 21.2637 69.0954 21.9569L69.5207 22.837C71.3229 21.2249 73.687 20.2441 76.2829 20.2441C78.0282 20.2441 79.6682 20.687 81.1035 21.4665C81.1035 21.4665 81.1035 21.4665 81.1049 21.4665C84.1944 22.5393 85.4433 24.1514 85.4433 24.1514C85.7036 24.3829 85.9596 24.6216 86.2057 24.869C89.1785 27.8746 91.0149 32.0235 91.0163 36.6095C91.0163 41.1956 89.1785 45.3444 86.2057 48.35C83.2328 51.3556 79.1291 53.2122 74.5931 53.2136C70.7027 53.2136 66.2762 51.6159 63.3872 49.3107C63.2535 49.2042 63.1184 49.0964 62.9904 48.9871C62.6817 49.2258 62.42 49.4185 62.218 49.5623C62.4001 49.7234 62.5893 49.8816 62.7841 50.0354C65.8594 52.4859 70.4752 54.1599 74.5945 54.1599C84.1816 54.1599 91.9537 46.3022 91.9537 36.6095C91.9537 28.6842 86.7562 21.9885 79.6199 19.8098L79.6213 19.8127Z" fill="#45284C"/>
<path d="M33.8223 19.8396L33.8322 19.844C34.1793 19.9748 34.4339 19.7807 34.4097 19.4125C34.3614 19.3924 34.313 19.3708 34.2632 19.3536C33.9873 19.2486 33.717 19.1738 33.451 19.1206C33.4709 19.3924 33.4937 19.6642 33.525 19.9331C33.5449 20.1071 33.6601 19.7792 33.8223 19.8396Z" fill="#070808"/>
<path d="M69.5221 22.8368L69.0968 21.9567L69.0456 21.8517C68.7299 21.1988 68.5947 20.4711 68.6701 19.7492C68.7341 19.1337 68.7683 18.5081 68.7683 17.8754C68.7683 8.00293 60.8525 0 51.0862 0C41.3198 0 33.4041 8.00293 33.4041 17.8768C33.4041 18.2953 33.4212 18.7095 33.451 19.1193C33.717 19.1725 33.9873 19.2459 34.2632 19.3523C34.3116 19.371 34.3599 19.3911 34.4097 19.4113C34.4097 19.4055 34.4097 19.3997 34.4097 19.394C34.3642 18.8935 34.3415 18.3888 34.3415 17.8768C34.3415 13.2002 36.2148 8.97076 39.246 5.90621C42.2771 2.84165 46.4605 0.947697 51.0862 0.947697C55.7119 0.947697 59.8952 2.84165 62.9264 5.90621C65.9576 8.97076 67.8309 13.2002 67.8309 17.8768C67.8309 22.5535 65.9576 26.7829 62.9264 29.8474C60.3276 32.4748 56.8953 34.3659 53.0392 34.6923C48.8487 35.0461 43.5957 32.0995 41.7807 30.9691C41.7224 30.9332 41.6655 31.0166 41.7167 31.0597C44.7721 33.6756 48.651 35.7522 51.7291 35.7522C57.039 35.7522 61.1996 33.3851 64.4014 29.6389C64.6006 29.4059 64.905 29.2938 65.2037 29.3498L65.3573 29.3786C65.619 29.4074 65.8751 29.4548 66.1268 29.5152C66.2861 29.5526 66.4426 29.5943 66.5976 29.6418C67.1993 29.7353 67.7683 29.7755 68.2932 29.7755C70.5235 29.7755 71.9673 29.0996 72.0085 29.0809C72.2461 28.9688 72.3471 28.6811 72.2318 28.4439L69.5193 22.8382L69.5221 22.8368ZM68.296 28.8264C67.6787 28.8264 66.9945 28.7674 66.262 28.6179C65.9746 28.5589 65.6802 28.4884 65.3772 28.4007C66.5436 26.7843 67.4468 24.9637 68.0272 23.0021C68.0955 22.7706 68.1623 22.5391 68.2206 22.3047L68.3785 22.6297L68.8166 23.5342L71.1665 28.3906C70.6202 28.5704 69.6089 28.8278 68.296 28.8278V28.8264Z" fill="#45284C"/>
<path d="M74.4352 30.4541C73.3356 30.4541 72.4438 31.56 72.4438 32.9247C72.4438 33.0829 72.4566 33.2368 72.4793 33.3863C72.9359 32.1711 73.9259 31.3256 75.0781 31.3256C75.4351 31.3256 75.7765 31.4104 76.0923 31.5585C75.7353 30.8927 75.1265 30.4526 74.4337 30.4526L74.4352 30.4541Z" fill="#070808"/>
<path d="M83.7549 85.3688V87.0269H102.959V67.6113H89.3122C86.0862 67.6113 85.2584 70.325 84.7164 73.5477L83.7563 85.3688H83.7549Z" fill="#F9F0A2"/>
<path d="M38.5561 64.0595H23.7857C21.3377 64.0595 20.1485 66.4655 20.1485 68.9404L19.352 83.4737H38.5561V64.0581V64.0595Z" fill="#E6EB9D"/>
<path d="M60.9236 68.165H46.7578C43.9755 68.165 42.6569 70.4458 42.6569 73.2573L41.7195 87.5791H60.9236V68.1636V68.165Z" fill="#FEDCB6"/>
<path d="M64.703 68.6629L64.0003 84.1841H82.5828L83.203 66.4267V64.7686H67.8508C65.7243 64.7686 64.7016 66.5115 64.7016 68.6629H64.703Z" fill="#B6E3F2"/>
<path d="M18.766 84.6586H39.1407C39.4636 84.6586 39.7267 84.394 39.7267 84.0661V63.467C39.7267 63.1406 39.465 62.8745 39.1407 62.8745H18.766C18.4431 62.8745 18.1799 63.1391 18.1799 63.467V84.0661C18.1799 84.3926 18.4417 84.6586 18.766 84.6586ZM19.9366 64.0595H37.9686C38.2915 64.0595 38.5547 64.3241 38.5547 64.652V82.8826C38.5547 83.209 38.2929 83.4751 37.9686 83.4751H19.9366C19.6137 83.4751 19.3506 83.2105 19.3506 82.8826V64.652C19.3506 64.3255 19.6123 64.0595 19.9366 64.0595Z" fill="#30375A"/>
<path d="M41.1349 88.7626H61.5096C61.8325 88.7626 62.0957 88.498 62.0957 88.1701V67.571C62.0957 67.2446 61.834 66.9785 61.5096 66.9785H41.1349C40.812 66.9785 40.5489 67.2431 40.5489 67.571V88.1701C40.5489 88.4966 40.8106 88.7626 41.1349 88.7626ZM42.3056 68.1635H60.3376C60.6605 68.1635 60.9236 68.4281 60.9236 68.756V86.9866C60.9236 87.313 60.6619 87.5791 60.3376 87.5791H42.3056C41.9827 87.5791 41.7195 87.3145 41.7195 86.9866V68.756C41.7195 68.4295 41.9813 68.1635 42.3056 68.1635Z" fill="#30375A"/>
<path d="M64.0003 83.593V65.3625C64.0003 65.036 64.262 64.77 64.5864 64.77H82.6184C82.9412 64.77 83.2044 65.0346 83.2044 65.3625V66.4281H84.375V64.1789C84.375 63.8525 84.1133 63.5864 83.789 63.5864H63.4143C63.0914 63.5864 62.8282 63.851 62.8282 64.1789V84.778C62.8282 85.1045 63.09 85.3705 63.4143 85.3705H82.5828V84.187H64.5849C64.262 84.187 63.9989 83.9224 63.9989 83.5945L64.0003 83.593Z" fill="#30375A"/>
<path d="M84.375 66.4263H83.1688C82.8459 66.4263 82.5828 66.6909 82.5828 67.0188V87.6179C82.5828 87.9443 82.8445 88.2104 83.1688 88.2104H103.544C103.866 88.2104 104.13 87.9458 104.13 87.6179V67.0188C104.13 66.6923 103.868 66.4263 103.544 66.4263H84.375ZM102.373 87.0254H84.3409C84.018 87.0254 83.7548 86.7608 83.7548 86.4329V68.2023C83.7548 67.8759 84.0166 67.6098 84.3409 67.6098H102.373C102.696 67.6098 102.959 67.8744 102.959 68.2023V86.4329C102.959 86.7593 102.697 87.0254 102.373 87.0254Z" fill="#30375A"/>
<path d="M33.956 66.9601V80.0596H32.8749V70.1052L28.5693 75.4951L24.2252 70.0477V80.0596H23.1442V66.9414L28.5607 73.7119L33.9574 66.9601H33.956Z" fill="#45284C"/>
<path d="M79.1903 67.9064V81.0059H78.1093V71.0515L73.8036 76.4414L69.4595 70.994V81.0059H68.3785V67.8877L73.7951 74.6582L79.1917 67.9078L79.1903 67.9064Z" fill="#45284C"/>
<path d="M51.3564 71.4395C52.2269 71.4395 53.0477 71.6091 53.8186 71.9471C54.5896 72.2865 55.2609 72.7467 55.8356 73.3277C56.4103 73.9101 56.8612 74.5932 57.1897 75.3798C57.5183 76.1664 57.6819 77.0005 57.6819 77.8821C57.6819 78.7636 57.5183 79.5991 57.1897 80.3858C56.8612 81.1724 56.4103 81.8555 55.8356 82.4379C55.2609 83.0203 54.5881 83.4805 53.8186 83.8185C53.0477 84.1579 52.2269 84.3261 51.3564 84.3261C50.4859 84.3261 49.6424 84.1564 48.8658 83.8185C48.0891 83.4791 47.4135 83.0189 46.8388 82.4379C46.2642 81.8555 45.8104 81.1724 45.4747 80.3858C45.1404 79.5991 44.9726 78.7651 44.9726 77.8821C44.9726 76.9991 45.1404 76.165 45.4747 75.3798C45.809 74.5932 46.2642 73.9101 46.8388 73.3277C47.4135 72.7467 48.0891 72.285 48.8658 71.9471C49.6424 71.6091 50.4731 71.4395 51.3564 71.4395ZM56.6023 77.8835C56.6023 77.1415 56.4657 76.4483 56.1941 75.8026C55.9209 75.1569 55.5483 74.5946 55.0732 74.1143C54.5981 73.6354 54.0405 73.2543 53.4004 72.9725C52.7603 72.6906 52.079 72.5511 51.3578 72.5511C50.6367 72.5511 49.9326 72.692 49.2868 72.9725C48.641 73.2543 48.0806 73.634 47.6055 74.1143C47.1304 74.5932 46.7535 75.1569 46.4747 75.8026C46.1959 76.4483 46.0565 77.1415 46.0565 77.8835C46.0565 78.6256 46.1959 79.3187 46.4747 79.9644C46.7535 80.6101 47.1304 81.1724 47.6055 81.6527C48.0806 82.1316 48.641 82.5127 49.2868 82.7946C49.9326 83.0764 50.6239 83.2159 51.3578 83.2159C52.0918 83.2159 52.7618 83.075 53.4004 82.7946C54.0405 82.5127 54.5981 82.133 55.0732 81.6527C55.5483 81.1738 55.9224 80.6101 56.1941 79.9644C56.4672 79.3187 56.6023 78.6256 56.6023 77.8835Z" fill="#45284C"/>
<path d="M98.2137 78.3714C98.2137 78.961 98.09 79.4845 97.8439 79.9389C97.5978 80.3933 97.2621 80.7759 96.8383 81.0836C96.4144 81.3914 95.9208 81.6258 95.3589 81.7854C94.7957 81.945 94.1982 82.0256 93.5667 82.0256C93.3007 82.0256 93.0034 82.0069 92.6748 81.968C92.3463 81.9292 92.0077 81.876 91.6592 81.8055C91.3107 81.7351 90.9637 81.6517 90.6152 81.5567C90.2667 81.4604 89.9353 81.3554 89.6195 81.2404L90.0747 80.32L90.682 80.4537C90.8342 80.4926 91.0106 80.5371 91.2126 80.5875C91.4146 80.6393 91.6294 80.6838 91.8569 80.7212C92.0845 80.7601 92.3121 80.7946 92.5397 80.8262C92.7673 80.8578 92.9764 80.8737 93.1656 80.8737H93.9436C94.3604 80.8737 94.7601 80.8161 95.1385 80.7011C95.5182 80.586 95.8525 80.4164 96.1441 80.1934C96.4343 79.9705 96.6661 79.6944 96.8368 79.3694C97.0075 79.043 97.0929 78.6691 97.0929 78.2477C97.0929 78.0694 97.0488 77.8709 96.9606 77.6523C96.8724 77.4352 96.7771 77.2569 96.6761 77.1159V77.1346C96.4983 76.8916 96.2992 76.696 96.0787 76.5493C95.8568 76.4027 95.6292 76.2905 95.3959 76.2143C95.1612 76.138 94.9151 76.0834 94.6563 76.0518C94.3974 76.0201 94.1413 75.9914 93.8882 75.9655C93.4586 75.9396 93.0219 75.8979 92.5795 75.8404C92.1372 75.7828 91.7133 75.6261 91.3079 75.3701V75.3888C90.8527 75.1328 90.4758 74.7618 90.1799 74.2757C89.8826 73.7897 89.7347 73.2403 89.7347 72.6263C89.7347 71.7821 90.0405 71.0602 90.655 70.4591C91.2681 69.8579 92.0874 69.4495 93.1115 69.2324H93.093C93.2452 69.2065 93.4685 69.1777 93.7658 69.1461C94.0631 69.1145 94.3945 69.0986 94.7615 69.0986C94.9635 69.0986 95.1982 69.1202 95.4628 69.1648C95.7288 69.2094 96.0033 69.2626 96.2878 69.3259C96.5723 69.3891 96.8539 69.4639 97.1313 69.5516C97.4086 69.6394 97.6618 69.7271 97.8894 69.8162L97.4527 70.8445C97.1242 70.7294 96.824 70.6302 96.5509 70.5468C96.2792 70.4634 96.0189 70.4001 95.7729 70.3555C95.5268 70.3109 95.2864 70.2764 95.0517 70.2505C94.817 70.2247 94.5738 70.2117 94.322 70.2117C93.9294 70.2117 93.5283 70.2592 93.1172 70.3555C92.7061 70.4519 92.3306 70.5957 91.9878 70.7869C91.6464 70.9782 91.3648 71.2284 91.1443 71.5347C90.9224 71.8411 90.8129 72.2063 90.8129 72.6277C90.8129 72.7686 90.8385 72.9182 90.8883 73.0778C90.9395 73.2374 91.0092 73.3942 91.0974 73.5481C91.187 73.7019 91.288 73.8486 91.4018 73.9896C91.5156 74.1305 91.6365 74.2455 91.7631 74.3347C92.0931 74.5389 92.4387 74.6698 92.8 74.7273C93.1613 74.7848 93.5254 74.8265 93.8938 74.8524C94.3248 74.8783 94.79 74.9416 95.2921 75.0451C95.7928 75.1472 96.2593 75.3342 96.6903 75.6031C96.9179 75.757 97.1242 75.9396 97.3076 76.151C97.4911 76.3624 97.6505 76.5896 97.7827 76.8341C97.9164 77.0771 98.0203 77.3317 98.0971 77.5934C98.1725 77.8566 98.2109 78.1154 98.2109 78.3714H98.2137Z" fill="#45284C"/>
<path d="M30.4981 94.3584C30.4042 94.3052 30.3075 94.275 30.2079 94.2664C30.1083 94.2592 30.013 94.2736 29.922 94.3095C29.831 94.3455 29.7499 94.4016 29.6788 94.4792C29.6062 94.5554 29.5522 94.6503 29.5152 94.7654L28.6432 97.3611L27.8566 94.7539C27.8154 94.6619 27.7656 94.5813 27.7045 94.5109C27.6433 94.4404 27.5764 94.3843 27.5025 94.3412C27.4285 94.2995 27.3517 94.2721 27.2706 94.2606C27.1895 94.2491 27.1085 94.2549 27.0274 94.2779C26.915 94.3081 26.8112 94.3642 26.7159 94.4476C26.6206 94.5296 26.5523 94.636 26.5125 94.7654L25.6832 97.3611L24.8539 94.7539C24.807 94.6389 24.7458 94.5439 24.6719 94.4677C24.5965 94.3915 24.5154 94.3354 24.4286 94.3009C24.3419 94.2664 24.2494 94.2534 24.1527 94.2606C24.0559 94.2678 23.9606 94.3009 23.8668 94.3584C23.7359 94.4346 23.6378 94.5411 23.5723 94.6762C23.5069 94.8114 23.4728 94.9624 23.4699 95.1264C23.4756 95.2256 23.4912 95.3277 23.5168 95.4327C23.5425 95.5376 23.5737 95.6412 23.6107 95.7447L25.0161 99.4924C25.0787 99.6534 25.164 99.7742 25.2735 99.8562C25.3831 99.9382 25.5025 99.9828 25.6348 99.9914C25.7131 99.9986 25.7913 99.9885 25.8695 99.9598C25.9478 99.931 26.0217 99.8879 26.0914 99.8303C26.1611 99.7728 26.2251 99.7009 26.2835 99.6161C26.3418 99.5298 26.3887 99.432 26.4257 99.3213L27.1796 96.9887L27.9477 99.4924C27.979 99.5959 28.0273 99.6836 28.0928 99.7555C28.1582 99.8275 28.2322 99.885 28.3147 99.9252C28.3972 99.9655 28.4825 99.9885 28.5721 99.9971C28.6617 100.004 28.7442 99.9957 28.8225 99.9684C28.9249 99.9339 29.0173 99.8778 29.0984 99.7987C29.1795 99.7196 29.2464 99.6161 29.3004 99.4866L30.7811 95.7275C30.8224 95.6239 30.8551 95.5132 30.8821 95.3924C30.9092 95.2716 30.9191 95.1781 30.912 95.1091C30.9063 94.9495 30.8665 94.8014 30.7954 94.6647C30.7242 94.5296 30.6247 94.4275 30.5009 94.3584H30.4981Z" fill="#30375A"/>
<path d="M39.337 95.0961C39.1563 94.8387 38.9373 94.6344 38.6813 94.4834C38.4252 94.3325 38.1379 94.2577 37.8193 94.2577C37.6813 94.2577 37.549 94.285 37.4181 94.3382C37.2887 94.3914 37.1706 94.459 37.0625 94.541C36.9544 94.6229 36.8634 94.7164 36.7866 94.8185C36.7482 94.8703 36.7169 94.9206 36.6899 94.971V93.3919C36.6899 93.2654 36.67 93.1489 36.6315 93.0396C36.5917 92.9303 36.5391 92.8368 36.4722 92.7563C36.4054 92.6758 36.3271 92.6125 36.2375 92.5636C36.1479 92.5161 36.054 92.4917 35.9545 92.4917C35.8549 92.4917 35.7553 92.5161 35.6643 92.5636C35.5733 92.6111 35.495 92.6758 35.4296 92.7563C35.3642 92.8368 35.313 92.9303 35.2746 93.0396C35.2376 93.1489 35.2191 93.2654 35.2191 93.3919V99.0939C35.2191 99.2205 35.2376 99.337 35.2746 99.4463C35.3115 99.5556 35.3642 99.6505 35.4296 99.7325C35.495 99.8144 35.5733 99.8791 35.6643 99.9237C35.7553 99.9697 35.8521 99.9927 35.9545 99.9927C36.0569 99.9927 36.1493 99.9697 36.2375 99.9237C36.3271 99.8777 36.404 99.8144 36.4722 99.7325C36.5391 99.6505 36.5917 99.5556 36.6315 99.4463C36.67 99.337 36.6899 99.2205 36.6899 99.0939V97.1856C36.6899 97.0404 36.7126 96.898 36.7596 96.7556C36.8065 96.6147 36.8705 96.4881 36.9544 96.3774C37.0369 96.2667 37.1337 96.1775 37.2432 96.1114C37.3527 96.0452 37.4693 96.0107 37.5945 96.0107C37.7197 96.0107 37.8292 96.0409 37.9316 96.0999C38.0341 96.1588 38.1222 96.2379 38.1962 96.3371C38.2702 96.4364 38.3271 96.5529 38.3697 96.6866C38.4124 96.8203 38.4323 96.9613 38.4323 97.1108V98.9674C38.4323 99.1011 38.448 99.2306 38.4793 99.3542C38.5106 99.4779 38.5561 99.5872 38.6172 99.6807C38.6784 99.7742 38.7538 99.8504 38.8448 99.9065C38.9359 99.964 39.0411 99.9927 39.1634 99.9927C39.2659 99.9927 39.3626 99.9683 39.4536 99.918C39.5447 99.8676 39.6215 99.8029 39.6883 99.7209C39.7538 99.639 39.805 99.5426 39.8434 99.4348C39.8803 99.3255 39.9003 99.2104 39.9003 99.0882V97.1108C39.9003 96.7182 39.8519 96.3472 39.7552 96.0021C39.6585 95.6569 39.5191 95.3549 39.3384 95.0961H39.337Z" fill="#30375A"/>
<path d="M48.3238 95.1177C48.1133 94.8603 47.8658 94.6561 47.5813 94.5051C47.2969 94.3541 46.9939 94.2793 46.6724 94.2793C46.3509 94.2793 46.0522 94.3555 45.7678 94.5051C45.4833 94.6561 45.2358 94.8603 45.0224 95.1177C44.8105 95.3751 44.6426 95.6785 44.5189 96.0251C44.3951 96.3731 44.334 96.7413 44.334 97.131C44.334 97.5207 44.3951 97.8946 44.5189 98.2427C44.6426 98.5907 44.8105 98.8927 45.0224 99.1501C45.2343 99.4075 45.4833 99.6117 45.7678 99.7627C46.0522 99.9137 46.3538 99.9885 46.6724 99.9885C46.991 99.9885 47.2969 99.9123 47.5813 99.7627C47.8658 99.6117 48.1133 99.4075 48.3238 99.1501C48.5344 98.8927 48.7022 98.5892 48.8245 98.2427C48.9483 97.8946 49.0094 97.525 49.0094 97.131C49.0094 96.737 48.9483 96.3731 48.8245 96.0251C48.7008 95.6771 48.5344 95.3751 48.3238 95.1177ZM47.469 97.5624C47.4249 97.6991 47.3637 97.817 47.2869 97.9191C47.2087 98.0212 47.1176 98.1017 47.0124 98.1607C46.9071 98.2196 46.7947 98.2498 46.6724 98.2498C46.5501 98.2498 46.4377 98.2196 46.3325 98.1607C46.2272 98.1017 46.1362 98.0212 46.0579 97.9191C45.9797 97.817 45.9185 97.6991 45.8759 97.5624C45.8318 97.4273 45.8104 97.2834 45.8104 97.1339C45.8104 96.9843 45.8318 96.8434 45.8759 96.7082C45.9199 96.5745 45.9811 96.458 46.0579 96.3573C46.1362 96.2581 46.2272 96.1776 46.3325 96.1186C46.4377 96.0596 46.5501 96.0294 46.6724 96.0294C46.7947 96.0294 46.9071 96.0596 47.0124 96.1186C47.1176 96.1776 47.2087 96.2581 47.2869 96.3573C47.3651 96.4565 47.4263 96.573 47.469 96.7082C47.5131 96.842 47.5344 96.9843 47.5344 97.1339C47.5344 97.2834 47.5131 97.4258 47.469 97.5624Z" fill="#30375A"/>
<path d="M62.1597 94.5798C62.0957 94.5021 62.0203 94.4388 61.9321 94.3943C61.8453 94.3482 61.7515 94.3252 61.6505 94.3252H61.3646V93.3905C61.3646 93.2639 61.3447 93.1474 61.3063 93.0381C61.2678 92.9288 61.2152 92.8354 61.1498 92.7548C61.0844 92.6743 61.0075 92.611 60.9179 92.5621C60.8283 92.5147 60.7344 92.4902 60.6349 92.4902C60.5282 92.4902 60.4315 92.5147 60.3419 92.5621C60.2522 92.6096 60.1754 92.6743 60.11 92.7548C60.0446 92.8354 59.9934 92.9288 59.955 93.0381C59.918 93.1474 59.8981 93.2639 59.8981 93.3905V94.3252H59.6363C59.5339 94.3252 59.4386 94.3482 59.3504 94.3943C59.2622 94.4403 59.1868 94.5021 59.1228 94.5798C59.0588 94.6589 59.009 94.7509 58.9735 94.8573C58.9379 94.9637 58.9194 95.0802 58.9194 95.2068C58.9194 95.3247 58.9379 95.4369 58.9735 95.5418C59.009 95.6468 59.0588 95.7389 59.1228 95.8194C59.1868 95.8999 59.2622 95.9632 59.3504 96.0092C59.4372 96.0552 59.5325 96.0782 59.6363 96.0782H59.8981V99.0925C59.8981 99.219 59.9165 99.3355 59.955 99.4448C59.9919 99.5541 60.0446 99.649 60.11 99.731C60.1754 99.813 60.2522 99.8777 60.3419 99.9222C60.4315 99.9683 60.5282 99.9913 60.6349 99.9913C60.7344 99.9913 60.8297 99.9683 60.9179 99.9222C61.0075 99.8762 61.0844 99.813 61.1498 99.731C61.2152 99.649 61.2678 99.5541 61.3063 99.4448C61.3447 99.3355 61.3646 99.219 61.3646 99.0925V96.0782H61.6505C61.75 96.0782 61.8439 96.0552 61.9321 96.0092C62.0189 95.9632 62.0957 95.8999 62.1597 95.8194C62.2237 95.7389 62.2749 95.6468 62.3119 95.5418C62.3489 95.4369 62.3688 95.3247 62.3688 95.2068C62.3688 95.0802 62.3503 94.9637 62.3119 94.8573C62.2749 94.7509 62.2237 94.6574 62.1597 94.5798Z" fill="#30375A"/>
<path d="M70.781 95.0961C70.6003 94.8387 70.3813 94.6344 70.1252 94.4834C69.8692 94.3325 69.5819 94.2577 69.2633 94.2577C69.1267 94.2577 68.993 94.285 68.8621 94.3382C68.7327 94.3914 68.6146 94.459 68.5065 94.541C68.3984 94.6229 68.306 94.7164 68.2306 94.8185C68.1922 94.8703 68.1609 94.9206 68.1339 94.971V93.3919C68.1339 93.2654 68.1139 93.1489 68.0755 93.0396C68.0371 92.9303 67.9831 92.8368 67.9162 92.7563C67.8494 92.6758 67.7711 92.6125 67.6815 92.5636C67.5919 92.5161 67.498 92.4917 67.3985 92.4917C67.2989 92.4917 67.1993 92.5161 67.1083 92.5636C67.0173 92.6111 66.939 92.6758 66.8736 92.7563C66.8082 92.8368 66.757 92.9303 66.7185 93.0396C66.6816 93.1489 66.6617 93.2654 66.6617 93.3919V99.0939C66.6617 99.2205 66.6801 99.337 66.7185 99.4463C66.7555 99.5556 66.8082 99.6505 66.8736 99.7325C66.939 99.8144 67.0173 99.8791 67.1083 99.9237C67.1993 99.9697 67.296 99.9927 67.3985 99.9927C67.5009 99.9927 67.5933 99.9697 67.6815 99.9237C67.7711 99.8777 67.8494 99.8144 67.9162 99.7325C67.9831 99.6505 68.0371 99.5556 68.0755 99.4463C68.1139 99.337 68.1339 99.2205 68.1339 99.0939V97.1856C68.1339 97.0404 68.1566 96.898 68.2036 96.7556C68.2505 96.6147 68.3145 96.4881 68.3984 96.3774C68.4809 96.2667 68.5777 96.1775 68.6858 96.1114C68.7953 96.0452 68.9119 96.0107 69.0371 96.0107C69.1623 96.0107 69.2718 96.0409 69.3742 96.0999C69.478 96.1588 69.5648 96.2379 69.6388 96.3371C69.7127 96.4364 69.7696 96.5529 69.8123 96.6866C69.855 96.8203 69.8749 96.9613 69.8749 97.1108V98.9674C69.8749 99.1011 69.8905 99.2306 69.9218 99.3542C69.9531 99.4779 69.9986 99.5872 70.0598 99.6807C70.121 99.7742 70.1964 99.8504 70.2874 99.9065C70.377 99.964 70.4837 99.9927 70.606 99.9927C70.7099 99.9927 70.8066 99.9683 70.8962 99.918C70.9872 99.8676 71.064 99.8029 71.1309 99.7209C71.1963 99.639 71.2475 99.5426 71.2859 99.4348C71.3229 99.3255 71.3428 99.2104 71.3428 99.0882V97.1108C71.3428 96.7182 71.2945 96.3472 71.1977 96.0021C71.101 95.6569 70.9616 95.3549 70.781 95.0961Z" fill="#30375A"/>
<path d="M77.2501 94.5307C77.1847 94.4502 77.1079 94.3869 77.0183 94.338C76.9287 94.2906 76.8334 94.2661 76.731 94.2661C76.6285 94.2661 76.5318 94.2906 76.4422 94.338C76.3526 94.3855 76.2758 94.4502 76.2104 94.5307C76.1449 94.6113 76.0937 94.7047 76.0553 94.814C76.0183 94.9233 75.9984 95.0398 75.9984 95.1664V99.0909C75.9984 99.2174 76.0169 99.3339 76.0553 99.4432C76.0923 99.5525 76.1449 99.6474 76.2104 99.7294C76.2758 99.8114 76.3526 99.8761 76.4422 99.9207C76.5318 99.9667 76.6271 99.9897 76.731 99.9897C76.8348 99.9897 76.9301 99.9667 77.0183 99.9207C77.1079 99.8746 77.1847 99.8114 77.2501 99.7294C77.3156 99.6474 77.3682 99.5525 77.4066 99.4432C77.445 99.3339 77.4649 99.2174 77.4649 99.0909V95.1664C77.4649 95.0398 77.445 94.9233 77.4066 94.814C77.3682 94.7047 77.3156 94.6113 77.2501 94.5307Z" fill="#30375A"/>
<path d="M86.2484 95.1177C86.0677 94.8603 85.8472 94.656 85.5898 94.505C85.3323 94.354 85.0421 94.2793 84.7207 94.2793C84.5984 94.2793 84.4675 94.2951 84.3253 94.3253C84.183 94.3555 84.0379 94.4058 83.89 94.4748C83.7406 94.5439 83.5913 94.6345 83.4405 94.7466C83.3395 94.8214 83.2428 94.912 83.1461 95.0098L83.1233 94.9322C83.0607 94.6992 82.9825 94.5324 82.8886 94.4303C82.7947 94.3296 82.6781 94.2778 82.5373 94.2778C82.2656 94.2778 82.1305 94.4418 82.1305 94.7711V99.0911C82.1305 99.2176 82.1489 99.3341 82.1859 99.4434C82.2229 99.5527 82.2755 99.6476 82.341 99.7296C82.4064 99.8116 82.4846 99.8763 82.5743 99.9209C82.6653 99.9669 82.762 99.9899 82.8644 99.9899C82.9668 99.9899 83.0593 99.9669 83.1475 99.9209C83.2357 99.8749 83.3139 99.8116 83.3822 99.7296C83.449 99.6476 83.5031 99.5527 83.5415 99.4434C83.5799 99.3341 83.5998 99.2176 83.5998 99.0911V97.1425C83.5998 96.9929 83.624 96.852 83.6724 96.7183C83.7207 96.5845 83.7862 96.4666 83.8687 96.3659C83.9512 96.2653 84.0479 96.1833 84.1574 96.1229C84.2669 96.0625 84.3822 96.0309 84.5031 96.0309C84.624 96.0309 84.7378 96.0611 84.8402 96.12C84.9426 96.179 85.0308 96.2581 85.1047 96.3573C85.1787 96.4565 85.2356 96.5744 85.2783 96.7096C85.3209 96.8448 85.3409 96.9872 85.3409 97.1367V99.0969C85.3409 99.2191 85.3608 99.3341 85.3992 99.4434C85.439 99.5527 85.4916 99.6476 85.5585 99.7267C85.6253 99.8073 85.7036 99.8705 85.7932 99.918C85.8828 99.9654 85.9781 99.9899 86.0819 99.9899C86.1858 99.9899 86.2811 99.9654 86.3707 99.918C86.4603 99.8705 86.5357 99.8058 86.5997 99.7224C86.6637 99.6404 86.7149 99.5455 86.7519 99.4362C86.7889 99.3269 86.8074 99.2133 86.8074 99.0954V97.1295C86.8074 96.7398 86.759 96.3717 86.6623 96.0237C86.5656 95.6756 86.4262 95.3736 86.2455 95.1162L86.2484 95.1177Z" fill="#30375A"/>
<path d="M95.8881 98.5417L94.8767 96.6218L95.6306 95.9172C95.7302 95.8295 95.817 95.7187 95.8881 95.585C95.9592 95.4512 95.999 95.3118 96.0047 95.1665C96.0047 95.1061 95.999 95.0457 95.9877 94.9867C95.9763 94.9278 95.9635 94.8717 95.9478 94.8171C95.9108 94.6991 95.854 94.597 95.7771 94.5136C95.7003 94.4302 95.6164 94.3669 95.5268 94.3252C95.4045 94.2749 95.285 94.2634 95.1655 94.2907C95.0745 94.3295 94.9877 94.3756 94.9038 94.4316C94.8199 94.4877 94.7402 94.5496 94.6648 94.6172L92.9451 96.2048V93.3905C92.9451 93.2639 92.9252 93.1474 92.8868 93.0381C92.8484 92.9288 92.7943 92.8354 92.7275 92.7548C92.6606 92.6743 92.5824 92.611 92.4928 92.5621C92.4032 92.5147 92.3093 92.4902 92.2097 92.4902C92.1101 92.4902 92.0091 92.5147 91.9195 92.5621C91.8285 92.6096 91.7503 92.6743 91.6848 92.7548C91.6194 92.8354 91.5682 92.9288 91.5298 93.0381C91.4928 93.1474 91.4729 93.2639 91.4729 93.3905V99.0925C91.4729 99.219 91.4914 99.3355 91.5298 99.4448C91.5668 99.5541 91.6194 99.649 91.6848 99.731C91.7503 99.813 91.8285 99.8777 91.9195 99.9222C92.0106 99.9683 92.1073 99.9913 92.2097 99.9913C92.3121 99.9913 92.4046 99.9683 92.4928 99.9222C92.5824 99.8762 92.6592 99.813 92.7275 99.731C92.7943 99.649 92.8484 99.5541 92.8868 99.4448C92.9252 99.3355 92.9451 99.219 92.9451 99.0925V98.3648C92.992 98.3188 93.039 98.2742 93.0873 98.2296C93.1357 98.185 93.1912 98.1361 93.2509 98.0801C93.3121 98.0254 93.3818 97.9607 93.4614 97.8888C93.5411 97.8169 93.6336 97.7306 93.7402 97.6314L94.7715 99.6087C94.8469 99.7238 94.9365 99.8173 95.0432 99.8892C95.1498 99.9611 95.2594 99.9898 95.376 99.9755C95.5197 99.9711 95.6448 99.9194 95.753 99.8187C95.8611 99.718 95.9407 99.5944 95.9919 99.452C96.0431 99.3082 96.063 99.1557 96.0502 98.9904C96.0374 98.8264 95.9834 98.6769 95.8867 98.5431L95.8881 98.5417Z" fill="#30375A"/>
<path d="M77.8675 89.5107C77.6669 90.5246 76.3839 91.954 76.3839 91.954C76.3839 91.954 74.3498 90.6526 74.1663 89.5337C74.0938 89.0937 74.1621 88.7931 74.5732 88.5127C75.2531 88.0482 75.7424 88.6407 75.933 88.9398C75.9742 89.0045 76.0667 89.0031 76.1079 88.9398C76.2857 88.6579 76.721 88.11 77.3184 88.3531C77.8618 88.5731 77.9685 89.0002 77.8675 89.5136V89.5107Z" fill="#30375A"/>
<path d="M35.532 88.484C30.0685 85.3187 24.2295 90.5059 19.352 91.2954C14.4745 92.0849 11.038 85.3676 11.038 85.3676C11.038 85.3676 13.3025 81.098 14.3167 84.1841C15.3308 87.2702 9.35384 89.3856 7.89302 88.9197C6.43077 88.4538 5.55029 87.2113 5.55029 87.2113" stroke="#30375A" stroke-width="3" stroke-miterlimit="10"/>
</g>
<defs>
<clipPath id="clip0_429_79">
<rect width="107.538" height="100" fill="white"/>
</clipPath>
</defs>
</svg>
